<svg id="Brands_linkedin" data-name="Brands/linkedin" xmlns="http://www.w3.org/2000/svg" xmlns:xlink="http://www.w3.org/1999/xlink" width="23" height="23" viewBox="0 0 23 23">
  <defs>
    <clipPath id="clip-path">
      <path id="Mask" d="M21.357,23H1.638A1.65,1.65,0,0,1,0,21.341V1.659A1.65,1.65,0,0,1,1.638,0H21.357A1.653,1.653,0,0,1,23,1.659V21.341A1.653,1.653,0,0,1,21.357,23ZM14.549,11.464c1.772,0,1.772,1.682,1.772,2.911v5.339h3.409V13.7c0-2.717-.5-5.232-4.092-5.232a3.609,3.609,0,0,0-3.229,1.772h-.047v-1.5H9.092V19.714H12.5V14.283C12.5,12.889,12.744,11.464,14.549,11.464ZM3.542,8.738V19.714H6.952l0-10.976Zm1.7-5.452A1.976,1.976,0,1,0,7.223,5.262,1.978,1.978,0,0,0,5.247,3.286Z" fill="none"/>
    </clipPath>
  </defs>
  <path id="Mask-2" data-name="Mask" d="M21.357,23H1.638A1.65,1.65,0,0,1,0,21.341V1.659A1.65,1.65,0,0,1,1.638,0H21.357A1.653,1.653,0,0,1,23,1.659V21.341A1.653,1.653,0,0,1,21.357,23ZM14.549,11.464c1.772,0,1.772,1.682,1.772,2.911v5.339h3.409V13.7c0-2.717-.5-5.232-4.092-5.232a3.609,3.609,0,0,0-3.229,1.772h-.047v-1.5H9.092V19.714H12.5V14.283C12.5,12.889,12.744,11.464,14.549,11.464ZM3.542,8.738V19.714H6.952l0-10.976Zm1.7-5.452A1.976,1.976,0,1,0,7.223,5.262,1.978,1.978,0,0,0,5.247,3.286Z" fill="none"/>
  <g id="Mask_Group_632" data-name="Mask Group 632" clip-path="url(#clip-path)">
    <g id="_color" data-name="🎨 color" transform="translate(0 0)">
      <rect id="Black" width="23" height="23" fill="#fff"/>
    </g>
  </g>
</svg>
